<?xml version="1.0" encoding="utf-8"?><svg viewBox="0 0 512 512" xmlns="http://www.w3.org/2000/svg" xmlns:xlink="http://www.w3.org/1999/xlink"><style>:root>svg{display:none}:root>svg:target{display:block}</style><svg fill="currentColor" viewBox="0 0 512 512" id="calendar" xmlns="http://www.w3.org/2000/svg"><path d="M446 40h-46V16c0-8.836-7.163-16-16-16s-16 7.164-16 16v24H144V16c0-8.836-7.163-16-16-16s-16 7.164-16 16v24H66C29.607 40 0 69.607 0 106v340c0 36.393 29.607 66 66 66h380c36.393 0 66-29.607 66-66V106c0-36.393-29.607-66-66-66zM66 72h46v16c0 8.836 7.163 16 16 16s16-7.164 16-16V72h224v16c0 8.836 7.163 16 16 16s16-7.164 16-16V72h46c18.748 0 34 15.252 34 34v38H32v-38c0-18.748 15.252-34 34-34zm380 408H66c-18.748 0-34-15.252-34-34V176h448v270c0 18.748-15.252 34-34 34z"/></svg><svg fill="currentColor" viewBox="0 0 480 480" id="customs" xmlns="http://www.w3.org/2000/svg"><path d="M399.984 471.336l-16-192a8 8 0 00-5.888-7.056l-10.112-2.76V264a8 8 0 00-6.264-7.816L295.984 241.6v-21.032c.696-.544 1.416-1.032 2.104-1.6A127.108 127.108 0 00343.6 128h.384a8 8 0 008-8v-8c0-61.856-50.144-112-112-112s-112 50.144-112 112v16a8 8 0 008 8 8.25 8.25 0 00.976-.152 127.31 127.31 0 0044.92 83.12c.688.568 1.408 1.056 2.104 1.6V241.6l-65.736 14.6a8 8 0 00-6.264 7.8v5.52l-10.112 2.76a8 8 0 00-5.856 7.056l-16 192A7.999 7.999 0 0087.984 480h304a8.001 8.001 0 008-8.664zm-48-200.936v6.48l-56-18.664v-.256l56 12.44zm-208-158.4c0-53.019 42.981-96 96-96s96 42.981 96 96h-24c-22.08-.026-39.974-17.92-40-40a8 8 0 00-9.736-7.816l-4.8 1.072a344.253 344.253 0 00-113.464 47.6V112zm8.368 14.56A328.165 328.165 0 01256.84 81.808c4.794 26.706 28.011 46.155 55.144 46.192H327.6a111.099 111.099 0 01-39.768 78.672c-27.713 23.109-67.983 23.109-95.696 0a111.2 111.2 0 01-39.784-80.112zm87.632 160.488l-40-20V230.64a90.62 90.62 0 0040 9.36 90.609 90.609 0 0040-9.368v36.416l-40 20zm40-2.112v15.952l-19.144-6.4 19.144-9.552zm-24.632 113.232l-15.368 20.496-15.368-20.496 15.368-66.592 15.368 66.592zm-36.224-103.624l-19.144 6.4v-16l19.144 9.6zM127.984 270.4l56-12.44-56 18.92v-6.48zm-20.968 69.496A33.985 33.985 0 01119.984 368a31.697 31.697 0 01-17.872 30.808l4.904-58.912zM335.984 464V344h-16v120h-160V344h-16v120H96.68l4-48.368c19.864-2.832 35.304-23.088 35.304-47.632a47.85 47.85 0 00-27.528-45.304l3.032-36.456.496-.136V288a8 8 0 008 8c.86 0 1.714-.14 2.528-.416l61.472-20.488V312a8 8 0 0010.528 7.584l34.472-11.488-20.8 90.104a8 8 0 001.4 6.6l24 32a8 8 0 0012.8 0l24-32a8 8 0 001.4-6.6l-20.8-90.104 34.472 11.488a7.872 7.872 0 002.528.416 8 8 0 008-8v-36.904l61.472 20.488a7.872 7.872 0 002.528.416 8 8 0 008-8v-1.896l.496.136L383.288 464h-47.304z"/></svg><svg fill="currentColor" viewBox="0 0 496 496" id="finish" xmlns="http://www.w3.org/2000/svg"><path d="M428 24H100V8a8 8 0 00-8-8H68a8 8 0 00-8 8v480a8 8 0 008 8h24a8 8 0 008-8V296h328a8 8 0 008-8V32a8 8 0 00-8-8zM84 480h-8V16h8v464zm336-360h-80v80h80v80h-80v-80h-80v80h-80v-80h-80v-80h80V40h80v80h80V40h80v80z"/><path d="M180 120h80v80h-80z"/></svg><svg fill="currentColor" viewBox="0 0 24 24" id="location" xmlns="http://www.w3.org/2000/svg"><path d="M12 24a.502.502 0 01-.331-.125C11.315 23.562 3 16.144 3 9c0-4.963 4.038-9 9-9s9 4.037 9 9c0 7.144-8.315 14.562-8.669 14.875A.502.502 0 0112 24zm0-23C7.589 1 4 4.589 4 9c0 5.918 6.451 12.358 8 13.819 1.549-1.461 8-7.901 8-13.819 0-4.411-3.589-8-8-8z"/><path d="M12 14c-2.757 0-5-2.243-5-5s2.243-5 5-5 5 2.243 5 5-2.243 5-5 5zm0-9C9.794 5 8 6.794 8 9s1.794 4 4 4 4-1.794 4-4-1.794-4-4-4z"/></svg><svg fill="currentColor" viewBox="0 0 496 496" id="truck" xmlns="http://www.w3.org/2000/svg"><path d="M494.4 239.208l-72-96a8.002 8.002 0 00-6.4-3.2h-72v-80a8 8 0 00-8-8H8a8 8 0 00-8 8v328a8 8 0 008 8h16.64c4.391 30.574 32.736 51.8 63.311 47.409 24.574-3.529 43.88-22.836 47.409-47.409h225.28c4.391 30.574 32.736 51.8 63.311 47.409 24.574-3.529 43.88-22.836 47.409-47.409H488a8 8 0 008-8v-144a7.995 7.995 0 00-1.6-4.8zM16 68.008h312v272H112a7.772 7.772 0 00-2.48.504 55.487 55.487 0 00-59.04 0 7.772 7.772 0 00-2.48-.504H16v-272zm8.64 312H16v-24h18.112a55.523 55.523 0 00-9.472 24zm55.36 48c-22.091 0-40-17.909-40-40s17.909-40 40-40 40 17.909 40 40c-.026 22.08-17.92 39.973-40 40zm280.64-48H135.36a55.523 55.523 0 00-9.472-24h244.224a55.523 55.523 0 00-9.472 24zm55.36 48c-22.091 0-40-17.909-40-40s17.909-40 40-40 40 17.909 40 40c-.026 22.08-17.92 39.973-40 40zm64-48h-8.64a55.523 55.523 0 00-9.472-24H480v24zm0-40h-32a7.772 7.772 0 00-2.48.504 55.487 55.487 0 00-59.04 0 7.772 7.772 0 00-2.48-.504h-40v-184h16v112a8 8 0 008 8h112v64zm0-80H376v-104h36l68 90.664v13.336z"/><path d="M80 364.008c-13.255 0-24 10.745-24 24s10.745 24 24 24 24-10.745 24-24-10.745-24-24-24zm0 32a8 8 0 110-16 8 8 0 010 16zM416 364.008c-13.255 0-24 10.745-24 24s10.745 24 24 24 24-10.745 24-24-10.745-24-24-24zm0 32a8 8 0 110-16 8 8 0 010 16zM360 300.008a8 8 0 008 8h32a8 8 0 000-16h-32a8 8 0 00-8 8zM128 92.008a8 8 0 00-8-8H40a8 8 0 000 16h80a8 8 0 008-8zM120 116.008H64a8 8 0 000 16h56a8 8 0 000-16zM120 148.008h-16a8 8 0 000 16h16a8 8 0 000-16z"/></svg></svg>